# xmcd
#
# Track frame offsets:
#	150
#	18565
#	35957
#	50882
#	75360
#	102142
#	119770
#	137737
#
# Disc length: 2061 seconds
#
# Revision: 4
# Processed by: cddbd v1.5.2PL0 Copyright (c) Steve Scherf et al.
# Submitted via: audiograbber 1.83.01
#
DISCID=6f080b08
DTITLE=Ross, Diana - Diana
DYEAR=1980
DGENRE=Soul
TTITLE0=Upside down
TTITLE1=Tenderness
TTITLE2=Friend to friend
TTITLE3=I'm coming out
TTITLE4=Have fun (again)
TTITLE5=My old piano
TTITLE6=Now that you're gone
TTITLE7=Give up
EXTD=
EXTT0=
EXTT1=
EXTT2=
EXTT3=
EXTT4=
EXTT5=
EXTT6=
EXTT7=
PLAYORDER=
